<mxfile host="app.diagrams.net" modified="2023-12-06T09:58:46.355Z" agent="Mozilla/5.0 (Macintosh; Intel Mac OS X 10_15_7) AppleWebKit/605.1.15 (KHTML, like Gecko) Version/17.1 Safari/605.1.15" etag="BGWUSFwSbsUu0yx8o2fo" version="22.1.5" type="device">
  <diagram name="Page-1" id="UaSxzdhLCmjJbKT9c6dG">
    <mxGraphModel dx="1235" dy="660" grid="0" gridSize="10" guides="1" tooltips="1" connect="1" arrows="1" fold="1" page="1" pageScale="1" pageWidth="827" pageHeight="1169" math="0" shadow="0">
      <root>
        <mxCell id="0" />
        <mxCell id="1" parent="0" />
        <mxCell id="DLnloHeyzuVVM-aKo27i-38" value="Azure Cloud" style="rounded=1;whiteSpace=wrap;html=1;dashed=1;labelPosition=center;verticalLabelPosition=top;align=center;verticalAlign=bottom;" vertex="1" parent="1">
          <mxGeometry x="260" y="150" width="360" height="240" as="geometry" />
        </mxCell>
        <mxCell id="bRs4JxvC8YH7bAJmXHYw-3" value="" style="outlineConnect=0;dashed=0;verticalLabelPosition=bottom;verticalAlign=top;align=center;html=1;shape=mxgraph.aws3.mqtt_protocol;fillColor=#5294CF;gradientColor=none;" parent="1" vertex="1">
          <mxGeometry x="210" y="267" width="40" height="40" as="geometry" />
        </mxCell>
        <mxCell id="bRs4JxvC8YH7bAJmXHYw-4" value="Azure &lt;br&gt;SQL Database" style="verticalLabelPosition=bottom;html=1;verticalAlign=top;align=center;strokeColor=none;fillColor=#00BEF2;shape=mxgraph.azure.sql_database_sql_azure;" parent="1" vertex="1">
          <mxGeometry x="530" y="290" width="47.5" height="50" as="geometry" />
        </mxCell>
        <mxCell id="DLnloHeyzuVVM-aKo27i-33" style="edgeStyle=orthogonalEdgeStyle;rounded=0;orthogonalLoop=1;jettySize=auto;html=1;" edge="1" parent="1" source="bRs4JxvC8YH7bAJmXHYw-9" target="DLnloHeyzuVVM-aKo27i-30">
          <mxGeometry relative="1" as="geometry" />
        </mxCell>
        <mxCell id="bRs4JxvC8YH7bAJmXHYw-9" value="Azure&lt;br&gt;IoT Hub" style="image;sketch=0;aspect=fixed;html=1;points=[];align=center;fontSize=12;image=img/lib/mscae/Azure_IoT_Hub.svg;" parent="1" vertex="1">
          <mxGeometry x="300" y="290" width="50" height="50" as="geometry" />
        </mxCell>
        <mxCell id="DLnloHeyzuVVM-aKo27i-7" value="" style="group" vertex="1" connectable="0" parent="1">
          <mxGeometry x="42" y="90" width="100" height="300" as="geometry" />
        </mxCell>
        <mxCell id="DLnloHeyzuVVM-aKo27i-3" value="Device &quot;Zone xy&quot;" style="rounded=1;whiteSpace=wrap;html=1;dashed=1;labelPosition=center;verticalLabelPosition=top;align=center;verticalAlign=bottom;" vertex="1" parent="DLnloHeyzuVVM-aKo27i-7">
          <mxGeometry width="100" height="300" as="geometry" />
        </mxCell>
        <mxCell id="DLnloHeyzuVVM-aKo27i-1" value="Azure IoT SDK" style="verticalLabelPosition=bottom;html=1;verticalAlign=top;align=center;strokeColor=none;fillColor=#00BEF2;shape=mxgraph.azure.azure_sdk;" vertex="1" parent="DLnloHeyzuVVM-aKo27i-7">
          <mxGeometry x="27" y="215" width="50" height="47.5" as="geometry" />
        </mxCell>
        <mxCell id="DLnloHeyzuVVM-aKo27i-2" value="RTOS" style="image;aspect=fixed;html=1;points=[];align=center;fontSize=12;image=img/lib/azure2/other/RTOS.svg;" vertex="1" parent="DLnloHeyzuVVM-aKo27i-7">
          <mxGeometry x="18" y="105" width="64" height="64" as="geometry" />
        </mxCell>
        <mxCell id="DLnloHeyzuVVM-aKo27i-16" value="" style="outlineConnect=0;dashed=0;verticalLabelPosition=bottom;verticalAlign=top;align=center;html=1;shape=mxgraph.aws3.utility;fillColor=#5294CF;gradientColor=none;" vertex="1" parent="DLnloHeyzuVVM-aKo27i-7">
          <mxGeometry x="18" y="15" width="64" height="70" as="geometry" />
        </mxCell>
        <mxCell id="DLnloHeyzuVVM-aKo27i-30" value="Azure &lt;br&gt;Stream Analytics" style="image;sketch=0;aspect=fixed;html=1;points=[];align=center;fontSize=12;image=img/lib/mscae/Stream_Analytics.svg;" vertex="1" parent="1">
          <mxGeometry x="411.47" y="292.75" width="57.05" height="44.5" as="geometry" />
        </mxCell>
        <mxCell id="DLnloHeyzuVVM-aKo27i-34" style="edgeStyle=orthogonalEdgeStyle;rounded=0;orthogonalLoop=1;jettySize=auto;html=1;entryX=0;entryY=0.5;entryDx=0;entryDy=0;entryPerimeter=0;" edge="1" parent="1" source="DLnloHeyzuVVM-aKo27i-30" target="bRs4JxvC8YH7bAJmXHYw-4">
          <mxGeometry relative="1" as="geometry" />
        </mxCell>
        <mxCell id="DLnloHeyzuVVM-aKo27i-37" style="edgeStyle=orthogonalEdgeStyle;rounded=0;orthogonalLoop=1;jettySize=auto;html=1;startArrow=classic;startFill=1;" edge="1" parent="1" source="DLnloHeyzuVVM-aKo27i-35" target="bRs4JxvC8YH7bAJmXHYw-9">
          <mxGeometry relative="1" as="geometry" />
        </mxCell>
        <mxCell id="DLnloHeyzuVVM-aKo27i-35" value="Azure IoT Hub&lt;br&gt;Device Twins" style="image;aspect=fixed;html=1;points=[];align=center;fontSize=12;image=img/lib/azure2/iot/Digital_Twins.svg;labelPosition=center;verticalLabelPosition=top;verticalAlign=bottom;" vertex="1" parent="1">
          <mxGeometry x="301" y="200" width="48" height="48" as="geometry" />
        </mxCell>
        <mxCell id="DLnloHeyzuVVM-aKo27i-26" value="" style="group" vertex="1" connectable="0" parent="1">
          <mxGeometry x="310" y="480" width="330" height="90" as="geometry" />
        </mxCell>
        <mxCell id="DLnloHeyzuVVM-aKo27i-20" value="Control Hub" style="rounded=1;whiteSpace=wrap;html=1;dashed=1;labelPosition=center;verticalLabelPosition=bottom;align=center;verticalAlign=top;" vertex="1" parent="DLnloHeyzuVVM-aKo27i-26">
          <mxGeometry width="330" height="90" as="geometry" />
        </mxCell>
        <mxCell id="bRs4JxvC8YH7bAJmXHYw-10" value="" style="shape=image;html=1;verticalAlign=top;verticalLabelPosition=bottom;labelBackgroundColor=#ffffff;imageAspect=0;aspect=fixed;image=https://cdn1.iconfinder.com/data/icons/fruit-136/64/Fruit_iconfree_Filled_Outline_raspberry-healthy-organic-food-fruit_icon-128.png" parent="DLnloHeyzuVVM-aKo27i-26" vertex="1">
          <mxGeometry x="8.75" y="12.75" width="58" height="58" as="geometry" />
        </mxCell>
        <mxCell id="DLnloHeyzuVVM-aKo27i-17" value="Raspbian" style="sketch=0;pointerEvents=1;shadow=0;dashed=0;html=1;strokeColor=none;fillColor=#DF8C42;labelPosition=center;verticalLabelPosition=bottom;verticalAlign=top;align=center;outlineConnect=0;shape=mxgraph.veeam2.linux;" vertex="1" parent="DLnloHeyzuVVM-aKo27i-26">
          <mxGeometry x="80" y="16.25" width="44" height="44" as="geometry" />
        </mxCell>
        <mxCell id="DLnloHeyzuVVM-aKo27i-18" value="Azure IoT SDK" style="verticalLabelPosition=bottom;html=1;verticalAlign=top;align=center;strokeColor=none;fillColor=#00BEF2;shape=mxgraph.azure.azure_sdk;" vertex="1" parent="DLnloHeyzuVVM-aKo27i-26">
          <mxGeometry x="240" y="12.75" width="50" height="47.5" as="geometry" />
        </mxCell>
        <mxCell id="DLnloHeyzuVVM-aKo27i-22" value="Qt/QML" style="shape=image;verticalLabelPosition=bottom;verticalAlign=top;imageAspect=0;aspect=fixed;image=data:image/png,iVBORw0KGgoAAAANSUhEUgAAAMgAAACSCAYAAAAATYUPAAAEDmlDQ1BrQ0dDb2xvclNwYWNlR2VuZXJpY1JHQgAAOI2NVV1oHFUUPpu5syskzoPUpqaSDv41lLRsUtGE2uj+ZbNt3CyTbLRBkMns3Z1pJjPj/KRpKT4UQRDBqOCT4P9bwSchaqvtiy2itFCiBIMo+ND6R6HSFwnruTOzu5O4a73L3PnmnO9+595z7t4LkLgsW5beJQIsGq4t5dPis8fmxMQ6dMF90A190C0rjpUqlSYBG+PCv9rt7yDG3tf2t/f/Z+uuUEcBiN2F2Kw4yiLiZQD+FcWyXYAEQfvICddi+AnEO2ycIOISw7UAVxieD/Cyz5mRMohfRSwoqoz+xNuIB+cj9loEB3Pw2448NaitKSLLRck2q5pOI9O9g/t/tkXda8Tbg0+PszB9FN8DuPaXKnKW4YcQn1Xk3HSIry5ps8UQ/2W5aQnxIwBdu7yFcgrxPsRjVXu8HOh0qao30cArp9SZZxDfg3h1wTzKxu5E/LUxX5wKdX5SnAzmDx4A4OIqLbB69yMesE1pKojLjVdoNsfyiPi45hZmAn3uLWdpOtfQOaVmikEs7ovj8hFWpz7EV6mel0L9Xy23FMYlPYZenAx0yDB1/PX6dledmQjikjkXCxqMJS9WtfFCyH9XtSekEF+2dH+P4tzITduTygGfv58a5VCTH5PtXD7EFZiNyUDBhHnsFTBgE0SQIA9pfFtgo6cKGuhooeilaKH41eDs38Ip+f4At1Rq/sjr6NEwQqb/I/DQqsLvaFUjvAx+eWirddAJZnAj1DFJL0mSg/gcIpPkMBkhoyCSJ8lTZIxk0TpKDjXHliJzZPO50dR5ASNSnzeLvIvod0HG/mdkmOC0z8VKnzcQ2M/Yz2vKldduXjp9bleLu0ZWn7vWc+l0JGcaai10yNrUnXLP/8Jf59ewX+c3Wgz+B34Df+vbVrc16zTMVgp9um9bxEfzPU5kPqUtVWxhs6OiWTVW+gIfywB9uXi7CGcGW/zk98k/kmvJ95IfJn/j3uQ+4c5zn3Kfcd+AyF3gLnJfcl9xH3OfR2rUee80a+6vo7EK5mmXUdyfQlrYLTwoZIU9wsPCZEtP6BWGhAlhL3p2N6sTjRdduwbHsG9kq32sgBepc+xurLPW4T9URpYGJ3ym4+8zA05u44QjST8ZIoVtu3qE7fWmdn5LPdqvgcZz8Ww8BWJ8X3w0PhQ/wnCDGd+LvlHs8dRy6bLLDuKMaZ20tZrqisPJ5ONiCq8yKhYM5cCgKOu66Lsc0aYOtZdo5QCwezI4wm9J/v0X23mlZXOfBjj8Jzv3WrY5D+CsA9D7aMs2gGfjve8ArD6mePZSeCfEYt8CONWDw8FXTxrPqx/r9Vt4biXeANh8vV7/+/16ffMD1N8AuKD/A/8leAvFY9bLAAAAOGVYSWZNTQAqAAAACAABh2kABAAAAAEAAAAaAAAAAAACoAIABAAAAAEAAADIoAMABAAAAAEAAACSAAAAAMowyMUAAB02SURBVHgB7V0HmFvFtT6SVtKut3rXdW1jHBewjQHTXGheU14CjzgECPUBCXzUAAkQQk2AAC9A4IMQiimB5NECAUJoxgRjG+x1p4N7xV6X3fX2Iq2kd/6RZbS70kp37pU0dzXH31rSvXfKPTP/nDMz55xxUBppyqLp1zvdjvuDvmAaS9VFaQ4Y54Azz0WhtsCVTuNJ5VJMWVhxvsNFdwb9GhxyHNSpMsGBtABk8oJpFzo8zqcoRHn8p0lzwDYcyEl1Tacumv5zctFMCoTcoaBGR6r5rfO3lgMplSCTK6dfLMARJA0Oa9tN55YmDqRMgkxdWHEJ5dCjFKQcLTnS1Jq6GMs5kBIJMmXhtEspx/GYBofl7aUzTDMHLAfI1AUVVzjcrkd5Mu7SkiPNramLs5wDlgKEJccvyeN8hIIhDQ7Lm0pnmAkOWDYHmVo5/SpyOx7i1SqnlhyZaEpdZio4YIkEYcnxK56QP6zBkYom0nlmkgOmATK5suJah9v5IE/IHVpyZLIpddmp4IApFWvqouOu40Xc+0OBkIMBoklzoNdxQFqCsOS4gTcB/6TB0ev6hH6hKA5IAYTnHDc63c57hUqlJUcUO/XX3sYBwyrWlEUVNzlynPew5CBezu1t/NDvoznQiQOGJMjkymm3CHB0sNjQ4OjESP2jd3IgaQnC+xy38j7HH0IAhxYcvbM36LfqxoGkJMjUymm/d3g0OLpxT1/o9RxIKEHYE/AOdnb6nfAE1JKj13cI/YKdOdAjQHhCfievVt2mwdGZafpX9nAgLkAmL5r2BwbHrRoc2dMZ9Jt250BMgPCE/C6H23GLBkd3hukr2cWBbpN0AQ6PBkd2dQP9tvE40EmCsLPT3Q6v42YRtyrLJuQhXrsW/0Lhz+Cez9hr2g5yMEcdDic5+Zv45wh/xmO0vm5PDuwFCE/I7+HVqpuyBRyBUICt8/mPrSzRyb1OL+W78qkwp4AKXPzHn3nOXMp1edl72C1AALB0cJr2YDu1BtqoKdBEjR1N/NlIzR0t4no4PyencZGTARSGkj07h641sRcH05RF0/6XJ+Q39mZwQC4AEB2hDvI4PDTQO4B+0GcEjckfTSPzRtCQ3HLq5ymjQlch5TJYXNzBE1GQwQWwACQ1/lra2raN1rduoNXNa2hty3ra0b6T2oJtIq8cR44GSyKGKnjfwaF5XnLm0FnCtqoXqlXBUJB8IT9LCA+N6jOSpvSdRJOKD6PR/L0opyhlTQLpsrZlAy2pX0YLdy8SoAFYAE5IFk1qcyASetRx5IrjQsH23meSi9HdF/RRqbuUppUeTSf1/y+aUDierWXcaW8ZSK6vmr6hd3bNojk186iWpY2HAYsZjCY1ObAXIFMqK3qd3IDaU5xTTKcMPIlOH3gqDcsdokwrfNe2lV7Z/jr9e+c7rJo1irlPpiqHAQSqpxFyMKg9zvQPMkbqaMWzvRIgGKkhOaaVHkOXDruIVaofWMGrlOSxiucpj21+kj7ZXclSLSftahfUvMOLD6U+rj6G3q+ho4GW139qKI0dH+51APHzPANS46rhl9OMASfbok0CPD/6x/Z/0hObnxaTeUzk00GQGli1e/HgZ6ncM9hQkQD2hV9eItL05hW6CEB6hRLczqrCvnn70iPjHrANONDDXDyKnzP4Z/Tg2HtpgKc/+YN+Q53V7MP+YIfhLDAQZRPZHiAAx7iC/enPY++nsfn72bLtDiuaSA+NvU8sNWdbB1S9wWwNEB+PuCN5L+O+/e6iwd5BqvO6x/phCfq+/e+ifu4ysVfT48P6Zto4YFuAYEJe6i6hu0b/3vbgiLT2mD6j6XejbiI3rxJhsUFT5jlgS4CEraVCdP2Ia3gnfFTmuWhhDaaUTKKLh17IezjZpetbyEJLs0rPsomlVSZh3vHTgTPoxH7HW5wzkZ9NUXb7d1NdRz3V+xuoOdDMO/Hh/QLsgsNOq6+7mMpYFerLEiwVdF75WbSYd+CX1S0XG4qpKEPnmRwHbAcQqFZDeOPvsn0uTu4Nk3hqW3sVLa1fTssbPhU2VNXt1dQSbBU78TBViWylwYIX+wceXiItYmPGcu9gXiAYS5NKDqeDCycIY8ckikv4CHb7r+bl6ssarxKATdVyKt7HKKWqLkbrka7nbQcQGBv+fMh5YjJrlklfNH4ldrUr6xaz1KgT2QkrXNj3svm62JeI0YsCXIda327a5aumFQ2f0UtVr/Bu/VA6od9xdOrAU2iQZ6DZqtG4/P3pFN7PQd65bFWsKTMcsBVAoP6M5SXdk/v/0BS3AIbHtzxF7+ycRa0wIORJMSx4kyWMogAQbKkitl2w5H1yyzPChAQAPn3QqeJ+snnGeu7c8jNpds2H1OhvTPtOe6z6ZOM1W03Sg6xenT34DFP2S6tb1tLl31xDr1a9LlaKAAwrjAZhHp/nzGPJUkt/XP8g3bL6dqpnswwzBBXuR/1OFHMgM/notPIcsA1AoFqNZNuq6aXHSr/tmpZ19Otvf0trmtdRnisvJf4ZAApAN6v6A/rNqlv2qm6ylYbKVphTaNioULa85NLF0DuTS2i7p2wFEJiso2PLEFambltzJ21v3yF8Q2TyMJIG0mRp3TK6Y909YtXNSNroZ0ewCc0R7L+il32juZK+77YACPY9SnJKeBI8XZozj2yeSauaV6cFHJFKAszzaj+m57Y+H7kk9YmBQaXVo+yRH7xqKdViaU6E0fOQ4oNpiLdcquTF9Ut5Qv5eRlaDYDX7wrZ/EOY+snR48SHCTgtL3JrSywFbAATBEuDjIUPoVM/yCI7PTIzCWACA++0L216Wqb5Ig83JI0oOFXsi0pnETJhNsiAmAxJeVH6ZFzZJ2LGGxasMrWj4nD6t/yyjO9KQIvNrP6HNbVton9xhMq9BR/WdSm/seCuptBgMsKgRjyJehJHPeM/Fuo408NjEp5kBB8vjdvDNVx4gHeyzMKZotIhCEqvBEl17a9c7YuRNJkpJorxk76Mj1fGS7+zqD4WdlUw+EwrGU382b8EeTk8dC+DYt89wEZQiXjmwDIAXY75Bb0LkV8JOaT/qfyLDg+OC4YIkfdn4tYj60tO7SGZtaTLlAQIJMrHoYKnRqtpfQ0t4JcmTgUANXVsJHfKj2vl0fvm5YmOy6/1Ev0vdfWlMwWhaUFspIqPEex4RXI7peyRduc+l8R4xdX0om/nAgtos3bj6NoJ/vteR/Aat2TJl0is/B0HQtoPYzkmGlrHvNMxBVBilIMHWcxig1S1rZF5FpDm48EAR6C5RBpAiqhMc3cyoaOl6P6UBAkNBzD/gFCVDsLGCKqACoTO0se6+uG6pdHXGF4zba9oinYkiCWXcfTNRdaUBgpEQIXv6snphlFrZGvdrjkWVrkAIydSPg5EK40ZZ0I7IG04lbGqPgcPu1CF8283MYtLDAbUBwgoFwoMiwq1R2sL6LXbNERhBFQJYN7RupLo9lsNG61XmKRUm9ogobGfCChgMT9neU3lSp/fEYRXsr2QI9latgVal9FzMhWrYTH5j6yaZV+KBwknD8/bhPR17SxBEzg8vQ6uPEKUBghFXdt9gDe9cf+/qJNUfU5LIz96Ja1vXS+cNNQsjsJ0JK5MAiPrwUNjUBJ0AjkKDvHLORxtaNhJ0fhVpHUd+l6VheUOVfa9k3ynEErCnjcxk80nHc2r2IH7zEIthmHkjcolRwhJiFc8/VFje7Vp3qEnfsXOVLA3yDBJWAXaWIkKC8AawXuaV7QWcDkzEig0OtTFK9RxwYXfHbqGzG02b6ucB2p18bghALENlvKLXh62EbQ0QliB22KtB+ygrQcJ7IH2llmnh+9HCJz7BLVY1ggSBp2Ejn0olQ+IELA4YAQkbjzJpVhOvTtHXnbxpijDjdiBlTU0wQsqG1anm8zcQqifiL65SQwC0LYEWEVIIURSNEnxMilxFtJWqeC7SnWBWg4jxsCCITw5h7oII+GV8fooRmr/7E7YpmyPSA6MhiY6OYxdw9IOKKnBXXigNEBjGyVAtSxAshbrVEyBC70YHqesIR1Ex+n6QQEXuIpYgPALHeL+ISQuisMej8AKIlxAUwihAVrLT2Ws7/iX87+Pln+g6qo0DhOwwB1EYIMTHGcgdkQYVS2UdHfo3ztmQpSI+R7Gn9wNIelKzkBYm+DIdFEvvWF00EgVG9j1VSKfsHASjjNHDXSIMbepojnxV8hP7Mzj4U5ZwAm9PAJHNV6frzgFlAQL9QcZfAa/YxOFCY2gf3d8+Y1dCHNK0Rbr0Ql7Ziz9Fl85WJ4zBAWUBYkaC4DTZmAp6DAZk4hImtzCmlCXZyC5dy9Mg68qR7r8VBsie0J/d65zwCk5qUlqCcOXaAu0J3yPeA+EJbry7+rqVHFAXILwcKrtMy9tQVvLI8rwA3rCUk8tali9ypWV3KnUBwjIgxym3yNbDHpoyrW3GFgkH7GSMskwvUxYgmEPILEOi4zgV3EHv2qHNmFogAr2m9HBAYYDIT7N72gNID1sTlwJbM1nqycxENs9k02Xb8rKyAAlPsuWm2pjEqt+Qcu+Gjqyin0uyALPbc8oCBB1cdrKNwNGqk4wbceSdZOyfImn1pzEOKA0QBI2TIZjIqz6XNKMG2iUiiEzbqZZGXYDwUhQc+2WoICdf7X0QfimogbJkZgVMtsxsTacuQFgGwOpVhsJWwPI6vkyZRtJAupkx9vNzyBzVJaQRfqj8rNIAaQnK2SsVsyeiSuF+YnUAM/OkdhO78LHqoq/F54CyAEGVWzhsjwyV8mE72G1WdSULsi2f1UBZgqGjuvJR9q3UTKcsQKBCNEmahEOCmFFhUt1U2AAt5DM/ZCksWTVEZPlnJJ2yAEHz13HwBRmCSyp8JlQN0Qmf7CJJZzDwoxn+9jKM0WkMc0BhgDjY604usAH8SBDPV8UNNah9OAoBEVtkqSHQwABRtulkX0vJdMpyGWqIbAxbBAMY6B3AEkRNq164uyLmlwx1CHddBDzQMkSGf0bTKAsQdHKcpiS7F4IDP1WUIFD7cOZgMfuVyxAioiAiiKwhp0yZ0WkyVW50HdL5XV2AsAqBOYjsRH143jAl9XSAFuGMZP3tEU8LPMlYyJwsE1zKAgTxo9ARIEVkaBgflqmiYxEkyABv/x6jjvT0vtW+Gmphl+JMjeSZKrcnnqTynroA4S4Av+3tvh1S7z80t5xXigpZzZI3K5cqOEEiGBruyxHaZamqvYr8khYG3cvU+/HdedL5irIAQTXhVLS5dXPnGif5q4yjFg72DlbuLA2MwKP7jEzyLbo/tql1S4bnVtmlYykNEHSPda0buveSJK7A624/PhU2IGnwmEQRhh/BEi/mHrJnLqLA9cwPM6byhivdJUF2wUPh4NVoF5iE42RYWTVpYuFBGdPVu/Qr8RPzD5x3gqOUZQjxhiFBzJjKy5QbnUbFgODR9bP6u9IShANoirO0EWtXhg4qmiB2rFWxycKS9biCsSJ0p8z74MyT7e3bLQGIPE+yS4YoDZDIXsg6liIyVM5zkHEF+/Ok1i+T3PI06FpTSyZJ57uKA0c3clhVK1aS4NcuEzgCVgDZBBGlAYKehFH384YvpDoVOlJF2bHSKppUoXEShZd3B9DhxYfGeSLx5U+ZD1a520Jtxa68UYIVQDaR8gCBmrWi4XPuGHJLktNKj6aBngEZX81q5/kD6lIqceY7OiScpDBQWHXuOwAr49Lch/39rZBgdgGZ8gBxO120pmUNnzm4XYqnOKTmxP7H84E68qE+pQqOSgRww7z9tIE/ibpq7OtaPvhzU9tmS+Yf6OA4PwWTfqMEK+mM7eIbrawFzysPEFit7vbX07L6FdKve+ag06m/p7+Uzi1daFTCtkAb/XjgyTRK8sx3ZLWAT42CA5lVozcixjRzFHyj1M9TprQzmtH3SfS88gDBC2Dd/6PaeYneJe79cu8gumTYL8R8RlZVi5t5ghsYpUflj6SLhlyQ4Mn4tzEPm1/7iTCTj/+UsTtQsXBMhFEa5BlIcEjLZPA6o3U287wtAIJYtJigYg9Alk4bOIPOGHQqR1XH0QjpIUQfKWSr3dtG3ih93iJq+nnjl7Sqea1l8w/kiYFit8/48jn8WEaxJUC2RFaxBUCgVuBk2FnVs9G2UoQ8rhtxDf100AwRWR0jaCoJxzzDa/DuMbfTgYUHmCrqjR3/5g5p7VI1ljx2seGjUQIfjy+rYAXN+AqY0bJUeN4WAAGjcHrrewwQWS/DSB63jLyBrh5+hYhL1R5sFyOplQ2BvYVWtrY9oHAcPTLuAVP7HqjXal6ggHplJo5WrPeD2lrlk1v4OKFsOh1RfJg4JQuT/UQEMEJiRf9LlEaV+65hF4+4XZXK9FQPrJzU8PHOA9hT8ICCcT092uM9jIAHFx1IR5QcRtih39q2TUgUXJddnUHDI9ohlmJhSvKLoefTb0dcS5j7mKUHNj5CK5tWWapeoU6oMw7jxOKBUdsuqLxH9Z1C7fy+u3w7GSit4t1h9wbAwJMT+ywRQMA8BX74WKJGWizdy5oPmeVnsukdbpYdHaF3HVMqK+Q2GJItycLnMDoPYTP25ybMNBX0ILpKXzR+JSTTkrpltI1NySFVQDhuOQwYQOd7Eo3Ou9BoYHQBcSwzm9WPyR9Fx5VN478Kw0crf59752+VdUvo19/eQOhgnWvR+TmZX1Axi/k46RcOepZkzmuPlAl/nY1tmwh+Kmgf2InhD744HgaDx+ERoMBvnPeCnfjPeD5517p7LQd9pE5WfDrzXBRqC1wpd0KNFTWQyAOM39i6iV6sepUuG3aRRA7dk2B+gD+4smKv4dvmVcJAEvsu8GjEpB6SgbEgRkGvy8OHi+YLEOyTO5SBMZr2yx9DwyQNELvXKHylKdBEf970mND13WT9gTkAP5bPYQzar7gsXjUSXod3JP6MECS31YA3Ur6RZ20FELwYdPGXql4Ru9L7c8e0imCGHgFLJE+MiFitgdoAKYKRPDI6Rp5J1efjm5/mlavV0oaNydQLwF/R8JmYTyTzvFXPwFwF6hZksOpAsc0kPdI4UGma2WDvvg0PSkdejOSV6BNgQGP2ceURTpaFzp4ON953ds2iV7e/LspOVEcz9+Ezs7huado3UPs4+yitXkXz1HYAQeUhRaDHPrTpL9Hv0iu+L2/4lO7f8JAYWVM9umIUX9W8hlaypEoneV1eMS+xw2ajLQGCxsRo/vr2N+nJ755NZ9umtKxvmlfSravvEPMhSK9UEwCI03bf3vVeqovqlL+XJ+5WL1t3KsDCH7YFCHiAJcOntvyVntjyjFhStJAvac8Kq2m/WXkzVftr0qp+oKO+v+sD4cqbrpdG3GT8YUVQdbI1QDACQk0ASO5c90cRUE11hseq39zdH9O1K2+knb5daZnjRNcBczpsvt63/iGxwRl9L1XfsdyLuZ0GSKo4HJUvQAJmv7njLbrim1/Rp42fR91V+ytWyZ757m9086rfC3CnYwEgFkcgRZbWL6M71t4tZeEbK8+ermFQw8KHBkhPXLL4HuYkK5tW01XfXEd/2vgw+27LxdOyuFoJs1vFpiStvBOdjjlHT5XBIPNB9Ry6+tvr6eumb3t61PQ9DGriHEnecFWdbGNqkgwj0cmwtv4ZeyB+UPOR2OiD6Udxjnwk9WTKlX0Gm3Xwmf9PzVwBEllTF9nyu6bDyL6trYpmV38oAvaVuUupzFPK3TnalqBrKmO/cazeLn81uy/MZzOfqowPDPFqb0tTk3gvE+s6TCngi1HCu7yTig+n4/tNp0M4DJDRXd9YeVt97RXe87h3/QMp3/dItt5QfWCNDDUIJjSHFk0Um6gj8vYVgEl0fBxAgFOw6jrqhAnKlrattLltCwcB3CLMeUT4VL6vMkVMTWxliyXDUEgURDVx8GgN33QYOk4sPojG8yfMQ4rZJN3KEVKmjtjRhmq4lL0mvTwfUIUAlLAlQdjGClHp4VOPvyK248I5LJg34Tkf8xiqIkxk4JqAiT9iK7exbVvEVB8LApCSkU9V3jNWPbIGINEvD6mCzogGxZwFh+wM3hPIDUaQA9gtt5TVCpzdgcbP42egdqBRASKADRNrmLNjNx+2WtW+arYP20xH951qKmIJ9P7Lvr5adMhMAzaaZ9HfwTfwUPwT8wdcCc8jUOe9/2C9y/9SYWQZXZ9Ufo8AxHa2WGaYgo7udYTD1qBha9gCdSeba0eipqCBcTou5jIYGfEJcww0NxpbdA4GCFxgMbJGRleYui9iy9u/TnhcnP0hU8fxHFDuzMGn8arW3wUwZfJIdZowf2CszpuY1k1LUl1tU/nbeh/EzJujsQEYAAGbVpAW+MRvjH7o/DB9b9pzYE2Dv0GoD5AeuIf04bS5LHEKOPLKOnp+28tmqkQXlJ9Lo9l/HflrUoMDWQuQROwHAASI+H+hNzOYhNqw53rX9Jg7vFz1TwGUrveS/Q3V7pf7XMaPO/aqLsmm1c+lhgMaIBbxFeDB0WiPbp4pVDHZbI/peyT9sP8Jex23ZPPR6cxxwJEjBikeFjVZxgFstn1Su5Der/nQVJ6XD7t4TzTI7AiMYIpZKUjszOX9tOaOzxwB59saIBYzGOrYk2w8KXt0HKozmH3ZLx52oZ6LWNw2yWTnzHVS0B9c4W9z/3jhkXM2aYAkwzUDz2BZeBMv+z679f8MpOr+6IwB/02TSg4XG3bd7+orqeCAAEd7aEUwGJyx9NjZW1CGBkgKOA1V6/Udb9JXTd9I5w6gXTX8crEfg30HTanlAMAR8oWWB1uDMxZPnvtdpDQNkAgnLPzE6heCPfxl00yxZyKb9dj8/ejs8jO0FJFlYJLpwuAILuMtrhmLK74HB5JrgCTJRKOPRUzI39r5rtGknZ7/n/JzOGrK6HBklU539A8rOIAJOUuOpQ5/zozKqXO2ds1TA6QrRyz8DTUJ/h5whJKlAg4xJCJBsptqxKxDNi+drjMHxGpVe3CJw+/6yYKjPtjW+W74lwZILK5YdA2mKjjX/OnvnjOVI8IRIf6WzIlQpgruxYnDkiOwyOfzxwUHXl8DJMWdABN2qFnLOFqJUdrFhpB/3/YCXfjlJSJGFqISajLPAQGO9sAijyN06vJjPq7qKUfN8Z64Y8E9TNhhCv4oT9ifGP9wUj4fWCZ+c+c7Ipo9PCOhquFPk3kOhMERrAyQ89S5R3yY0O1Uc908zxPmgBi1nzd+Qa/x0u85g38W93mYvGN5+KOaecKU3s3zDpjla7KGA2LO4Q8uCDY5Tlt8fGJwoFQNEGt4nzAXBHH+29bn6djSo2iIt3zv8zChX9KwXERSRJRDxAjGCpgGxl4WWfIlPOcIfeLoyGFwzN6ZbKYaIMlyyuRzMEHBnGImm6HcOeo24Wk3j8/9eG3HG3x67ZfCrEQDwyST4yQPgyP4scvtP+3jSR8bWlLUAInD1FRcxoR9DqtPCCKB0KnfNq3kYhwsMcLOWakoM9vz3AOO+a52/+lGwQHe9XqfdNU6CPYyENQg7K2ox6dUto+Yc/gC83wtodOXV8ytlilLt5AM10ykwaoWJImm1HJgj+SYQwHPGcsr3q+VLU0DRJZzOp2yHBCSwx/4DwXazmTzEWlw4AX1RqGyzawrJsMBITnag7O97tAZlVMrTYED5WsJItMKOo2SHEConmB7YJYvx3XWwolz6q2opAaIFVzUeWScA0JytAXeDVLL2csPW9xgVYW0imUVJ3U+GeOAkBy+4NuODt9ZiydbBw68kJYgGWtWXbAVHNgjOd70FobOmzt+QZMVeUbnoSVINDf0d1txIDznCP6rIM997tzxcy0HB5ihAWKrLqErG+HAnti5r/ly8s+dfdDs5sh1qz+1imU1R3V+KefAHsnxKgXbLlh+2EetqSxQS5BUclfnbTkHwnOO4MsUaL2A9zlSCg5Unv1wsiRMt+VNpTNMNwccORzUzRd80dsavGhuRWVbOsrP4QMvZqejIF2G5oApDvDJFNQeWFtSm3vNeye9124qLwOJ/x8erz/9AXStYgAAAABJRU5ErkJggg==" vertex="1" parent="DLnloHeyzuVVM-aKo27i-26">
          <mxGeometry x="150" y="14.25" width="63.01" height="46" as="geometry" />
        </mxCell>
        <mxCell id="DLnloHeyzuVVM-aKo27i-24" style="edgeStyle=orthogonalEdgeStyle;rounded=0;orthogonalLoop=1;jettySize=auto;html=1;exitX=0.5;exitY=1;exitDx=0;exitDy=0;" edge="1" parent="DLnloHeyzuVVM-aKo27i-26" source="DLnloHeyzuVVM-aKo27i-20" target="DLnloHeyzuVVM-aKo27i-20">
          <mxGeometry relative="1" as="geometry" />
        </mxCell>
        <mxCell id="DLnloHeyzuVVM-aKo27i-42" style="edgeStyle=orthogonalEdgeStyle;rounded=0;orthogonalLoop=1;jettySize=auto;html=1;exitX=0;exitY=0.5;exitDx=0;exitDy=0;entryX=-0.017;entryY=0.507;entryDx=0;entryDy=0;entryPerimeter=0;startArrow=classic;startFill=1;" edge="1" parent="1" source="DLnloHeyzuVVM-aKo27i-20" target="bRs4JxvC8YH7bAJmXHYw-9">
          <mxGeometry relative="1" as="geometry">
            <Array as="points">
              <mxPoint x="276" y="525" />
              <mxPoint x="276" y="315" />
            </Array>
          </mxGeometry>
        </mxCell>
        <mxCell id="DLnloHeyzuVVM-aKo27i-43" style="edgeStyle=orthogonalEdgeStyle;rounded=0;orthogonalLoop=1;jettySize=auto;html=1;entryX=0.69;entryY=0.5;entryDx=0;entryDy=0;entryPerimeter=0;" edge="1" parent="1" source="DLnloHeyzuVVM-aKo27i-20" target="bRs4JxvC8YH7bAJmXHYw-4">
          <mxGeometry relative="1" as="geometry">
            <Array as="points">
              <mxPoint x="475" y="410" />
              <mxPoint x="640" y="410" />
              <mxPoint x="640" y="315" />
            </Array>
          </mxGeometry>
        </mxCell>
        <mxCell id="DLnloHeyzuVVM-aKo27i-45" style="edgeStyle=orthogonalEdgeStyle;rounded=0;orthogonalLoop=1;jettySize=auto;html=1;" edge="1" parent="1" source="DLnloHeyzuVVM-aKo27i-44" target="bRs4JxvC8YH7bAJmXHYw-10">
          <mxGeometry relative="1" as="geometry" />
        </mxCell>
        <mxCell id="DLnloHeyzuVVM-aKo27i-44" value="" style="verticalLabelPosition=bottom;html=1;verticalAlign=top;align=center;strokeColor=none;fillColor=#00BEF2;shape=mxgraph.azure.tablet;pointerEvents=1;" vertex="1" parent="1">
          <mxGeometry x="316.25" y="415" width="63" height="50" as="geometry" />
        </mxCell>
        <mxCell id="DLnloHeyzuVVM-aKo27i-46" value="openweather API" style="shape=image;html=1;verticalAlign=bottom;verticalLabelPosition=top;labelBackgroundColor=#ffffff;imageAspect=0;aspect=fixed;image=https://cdn2.iconfinder.com/data/icons/weather-color-2/500/weather-02-128.png;labelPosition=center;align=center;" vertex="1" parent="1">
          <mxGeometry x="652" y="207" width="126" height="126" as="geometry" />
        </mxCell>
        <mxCell id="DLnloHeyzuVVM-aKo27i-48" style="edgeStyle=orthogonalEdgeStyle;rounded=0;orthogonalLoop=1;jettySize=auto;html=1;" edge="1" parent="1" source="DLnloHeyzuVVM-aKo27i-20" target="DLnloHeyzuVVM-aKo27i-46">
          <mxGeometry relative="1" as="geometry" />
        </mxCell>
        <mxCell id="DLnloHeyzuVVM-aKo27i-54" value="" style="group" vertex="1" connectable="0" parent="1">
          <mxGeometry x="42" y="425" width="104.22" height="263" as="geometry" />
        </mxCell>
        <mxCell id="DLnloHeyzuVVM-aKo27i-53" value="Virtual Device" style="rounded=1;whiteSpace=wrap;html=1;dashed=1;labelPosition=center;verticalLabelPosition=top;align=center;verticalAlign=bottom;" vertex="1" parent="DLnloHeyzuVVM-aKo27i-54">
          <mxGeometry width="104.22" height="263" as="geometry" />
        </mxCell>
        <mxCell id="DLnloHeyzuVVM-aKo27i-49" value="" style="image;sketch=0;aspect=fixed;html=1;points=[];align=center;fontSize=12;image=img/lib/mscae/Docker.svg;" vertex="1" parent="DLnloHeyzuVVM-aKo27i-54">
          <mxGeometry x="28.97" y="14" width="50" height="41" as="geometry" />
        </mxCell>
        <mxCell id="DLnloHeyzuVVM-aKo27i-50" value="Azure IoT SDK" style="verticalLabelPosition=bottom;html=1;verticalAlign=top;align=center;strokeColor=none;fillColor=#00BEF2;shape=mxgraph.azure.azure_sdk;" vertex="1" parent="DLnloHeyzuVVM-aKo27i-54">
          <mxGeometry x="25.25" y="179" width="50" height="47.5" as="geometry" />
        </mxCell>
        <mxCell id="DLnloHeyzuVVM-aKo27i-51" value="Python" style="shape=image;verticalLabelPosition=bottom;verticalAlign=top;imageAspect=0;aspect=fixed;image=data:image/png,/9j/4AAQSkZJRgABAQAAAQABAAD/2wCEAAkGBxEOEA4QDw4RDw4PEQ4PDhAOFBARDg4RFxcXGBYTFhYZHioiGRsoHCEUIzMkJystMDAzGCE2OzYvOjcvMC0BCwsLDw4PHBERGy8hHiQtLS0vMi80Ly8tLy0tLS8vLy0vLzovMC8vMC8vLy8vLy8vLy0vLy8vLS8vLy8vLzEvL//AABEIAOsA1gMBIgACEQEDEQH/xAAcAAEAAgMBAQEAAAAAAAAAAAAAAQIEBQcGAwj/xABKEAACAQMAAwsFCwoGAwAAAAAAAQIDBBEFITEGEjJBUVJhcYGRoQcTFJPRFRYiQlNydJKxwdIXMzRUYoKisrPhIyQ1c9PwY2Tx/8QAGgEBAAMBAQEAAAAAAAAAAAAAAAECBAUDBv/EADYRAAIBAgIFCgUDBQAAAAAAAAABAgMRBCEFEjFhkRQyQVFxgaGxwfATFSLR4TNS8SNCYnKi/9oADAMBAAIRAxEAPwDuIAAAAAAAAB8rivCnFzqTjCEdblNpRXay1SainKTSSTbb2JLazk26PTk72q3lqjFvzVPiS5zXOfhnB60aTqPceVaqqa3nrNI7vKUHvaFKVZ86T83DsysvuR5+73bXk+DKnSXFvIJvvnk822XqW1SMd/KlUjDnShJQ72sG+NCnHov2mCVepLp4GbX0/dz4V1V/dnKC7o4MKpeVZcKrUl86c39rPg2VbPXVS2LwR5aze1viy0pN7XnrKqo1sk11Nohsq2AZMNJV4cGvVj82pUX2MzKG6e9p8G7q/vtVP50zUNlWQ4xe1IlSl1viz19h5Qrmm152FOtHj1eaqd61fwntdA7p7e9+DTlva2MulUwqnS48Ul1duDjLJjNxalFuMotOMotqUWtjTWxnjPDwlsyZ7QxE47cz9BA8fuF3U+mRdGu16TTWVLZ56C+N85asrt5cewOfOLi7M6EZKSugACpYAAAAAAAAAAAAAAAAAA0W7S4dOxrtbZKFPslJKXhk5Qzp3lCf+Sf+5S+05g2dHCczvOdi39fce+3A6Ep+bV1UipTlKSo77WoRi8OS/abT18i6z2slnU1lPU09h5fyfX8alqqOV5yi5qUeNxlJyjLq1tdh6ox123Ud/aNlCypq3tnL93mhYWtSnVpRUadbfZgtUadRYzjkTT2cWGeVbPb+U3SMZSo28WnKnvqtTHxW1iK68b59x4Zs30G3TVzBXSVRpBsq2GyjPU8g2VZLKsAMhsNlWwDI0bfytq1KvDhUpqaXOXxo9TWV2ne6VRTjGUXmMkpRfKmso/PLZ3bcy82Vk3t9Gt/6cTHi1kmbcI9qNoADEbAAAAAAAAAAAAAAAAAADzPlD/Qn/uUvvOXNnU93lCdS0cacJ1Jecpve04ynLGvXhHOXoa6/VLj1VX2HQwrXw+85+KTdTJdCMa1ualGanTnKE47JQeH1dK6Db1d2V9KO98/jicowpqT7cauzBr3oa6/VLj1VX2FXoa6/VLj1VX2Hs1B5ux4x+IsldGFObk25Nyk23Jybcm3tbb2so2Z70Jd/qlx6qr7Cr0Jd/qlx6qr+EtrLrK6kup8DXtkMzp6Hukm3aV0km23SqpJLa28GvbJTT2Bprag2Q2S2VbBAbKNhsq2CQ2d23L/oNl9Gt/5InB2zvG5b9Bsfo1v/AE4mTF81dprwu1m1ABhNoAAAAAAAAAANLuh0/TsoJy+HVkn5umnhvpb4okxi5OyIlJRV2beclFNyaSWttvCS6Waa53V2VN4dxGT/APEpVF3xTXic30tpetdy31Wo2s5jTjqpQ6o/e9Zr2bYYRbZPgYpYx/2ridP9/Fnzqnq5Ee/mz51X1bOXtlWy/JKe8pyupuOo+/uy51T1bI9/dlzqnq5HLmyrY5JT3jldTcdT9/llzqvq2R7/AGy51X1bOVtlWxyWnvHKqm46t7/bLnVfVsj3/wBjzqvq5HKGyrHJae8nlVTcdQv93VlUo1YRlUzOnUhHNNpZcWkcuDZVs9KdKNPmnlUqyntDZRslsq2ehQhsq2S2VbBJDZ3ncu8WFk//AFbf+nE4Kd53M/6fZ/RaH9NGPGc1M1YTnMzvTYcr7h6bDlfca4Hyi0lX3cPydf4MTY+mQ5fBn2hNPY0+o1AjNp5Tw+gvDSdRP60mt2XqyHQXQzdAxrSvv1r2raZJ2KdSNSKlF3TM7TTswAC5BiaRvI29KpVnwacXJ8rfFFdLeF2nINJX07irOrVeZzeeiK4oroR7Tyk3rjCjRT4cpVZ9UdUU+1t/ungWdDCwtHW6X5HPxU7y1eheYZVslsq2ajKQ2VbJbIbAIbKtktlWyCQ2UYZVgBkMNkNgBso2GyrYJDZVsNlWwSGyrDBAB3ncz/p9n9Fof00cGO87nFvbCzT1NWtvno/w0Y8ZzOPka8JzmUIyCMnwnQdwEZGSCCS9GrvJKXJ48puU861sZocm2sKm+gujK9h1NFVvqlTfTmvX04HhXjkpGUADuGU5bu8ud/e1I8VKFOmu7fvxl4HnGzO05W85c3M+WtVx1KTS8MGvbOvTVoJbjkVHebe8NlWw2Q2XKBsq2GyrZBIbKNktlWAGVbDDYBDZVslso2AQ2VbJbKtgsGyrYbIIAACXe9SS2t8gBk6NsZXNalQhw6s401+yntl1JZfYd8rpU6W9jqioxhFdGzHceR8nu5OVqvSbiOLicd7TpvbRg9rfJN+C1cbR6W+r76WFsj4nE0ri1Cm7PrS7X09yOng6LWb9pGNkjIyQfInVGSMjJUqSSZ+ip65x6E19/wBxrjK0dLFRdOV4Z+40YKeriIdtuOXqVqq8GbkAH1Zzzhdae+lKXOlJ97yfNsvWjvZSjzXJdzwfNs7RxQ2VbDZVsgkNlGyWyjADZDJSbaSTbbSSSbbb2JLjZ0fcruGhTUat5FVKrw40XrhT+fz5dGxdO0pUqKCuz0p03N2R4XRuhbm610KE6kefqjD68sLxN7T8nl7JZcqEOic55/hizp8riEPg8mpJbF0Hxd++KPezk1dLQhK113Js3wwKtnd+Bzd+Te9+Vtfr1vwEfk2vPlbX69b8B0n06XNXiPTpc37Ty+dU+vwZfkK6vE5q/Jre/K2v1634Cr8ml78ra/XrfgOmenS5q8R6dLmrxHzqn1+DHIV1eJzP8md78ra+srf8ZH5M735W19ZW/wCM6Z6fLmrxHp8uZ9pHzqn1/wDLJ5CurxOdW3kwuG/8W5owXLSVSo+5qJ7DQG461sWqii6taOtVa2G4fNWyPXt6TZyv5cSS7zGq1pS4Um/+8hnraai1aN34L7+B6QwSTvb1Mq6vM5jDtfsMEZGTgV6860taf8dhuhFRVkRkgEHgXGSARkrckH2s3ipDrR8Mn0svzkPnIvRf9SH+y8xJZM9CAD7M5ZxPTtLzd1cw5tarjq3za8MGA2ei3f23m76o+KrClVXdvX4xZ5xs68HeKe45FRWk1vZDZVslsoyxUMqwyVFyajFZlJpRXK3qSAPe+TXQKeb2rHOHKFunsytUqnfmK6pdB7i7r/Fi+tkWVtG1oU6ceDRhGC6WljL63r7TDPl9K4uXNi9vl+fudzC0VGPZ5gAHBNgAIyASQQRkrcknJGSMkZK3JsSVyMkFWyQRkEFSwIBGSpIyRkZIyVuSMmRo5Zqw6M+CMXJsdCwzKcuT7X/8NGChr4imt6fDP0KVXqwbNwAD7E5h4Lyo2WY29dLgudGX73wo/ZLvOfNnbdOaOV3b1aD1b+PwZc2a1xl2NI4ncUpU5ThOLjOEnCcXtjJPDR0MLO8NXq8jn4qFp63WfNshhlWaTMGzL0Is3NquJ3FBP68TDbMzQb/zVp9It/54kS2PsLQ5yO4X3AfYa42N/wADuNcfE6S/W7l5s+ho80AEGA9RkjIyVyVJsTkjJBGStyxJGSCMlbkggEFWyUSRkjJGSpIyRkZIyUuWGSMkkFWySDe6Mpbyms7ZfCfb/bBp7Shv5xjxPW+g9KdzQ1C8pVn0ZL19PEyYqeSiAAfQGIHi9225R3Wbi3S9ISSnDUlWS2YfFJbOk9oC0JuDuis4Kasz8/VYShKUZxcJxeJRknGUXyNPYUbO46U0Jb3f5+hCo0sKeuNRLkU44aXaaGr5O7OTypV4LkjODX8UWzbHFQazyMUsLJbGcqbMvQT/AM1Z/SLf+eJ0j8nFp8rc/Xp/gL23k+tadSnUjUruVOpCrFSlT3rlGSks/A2ZRLxNNpoiOHmnfI9Pf8DuNbk2V/wGazJ8hpL9fuXqdujzQRkZIOcewyQRkgq2STkgmCy4rlNn7nw/a7/7HvQwlSum4Wy3lJ1Iw2mqINt7mw/a7/7Ee5sOWff/AGPd6LxG7j+COUQ9o1OSMm39zYcs+/8AsPcyHLPvXsK/KsRu4/gnlFP2jT5K5Nz7lw5Zd69g9yqfLPvXsIeicTu4jlNP2jS5IN17lU+WXevYPcmnyy717CPlGJ/x4/gtymmaUmEXJpJZb2JbWbn3Lp/tPra+5GTRt4wXwYpfeXpaGrN/XJJbs35W97CssVG2WZ8tHWnm46+E+EZgB9DSpRpQUIbEYZScndgAHoQAAAAAAAAAYukOA+tGrybTSH5t9hqsnz2lP1+5epsoc0ZIyMlTmnsSQQCtywTxs2o+vpNT5R958clckxqTjzW12Noaqe0+/pdT5R95HpdT5R958MhJt4Sbb2Ja2x8er+58WNSPUj7emVOe+8j0yp8o+8mVjVSzvO7DfcYzJnPEQ57mu1yRMYwey3gff0yp8o+83ts24QbeW4pt8rwebPSWv5un8yH2I6eh6k51J60m8ltbfTvZnxUUoqy6T7AA+gMQAAAAAAAAAAAAAAAAABi6R/NvsNQbu5p7+Eo8bWo0bPn9LRaqqXQ15P8AKNmHd42GSARk5NzQCMjJGSrZYZIyRkjJVsknJt9EUkoKfxp518mOI0xttEV1vfNvhJtrpT1+06GinBYla3U7duXpc8cSnqZG0NPpmgk4zWpvVLpfEbg0ml7lTahF53uW2tnUdnSrgsNJS6dnb/G3dcy4dP4isYB6S24FP5kPsR52lTc5Ritsv+5PTRjhJLYlhGDQkHec+jJd+fke2LlkkWAB9AYgAAAAAAAAAAAAAAAAAAa6+s99mUVr41ymxB416EK8NSezxT6173PItCTi7o82yuTe3FpCptWvlNfV0XNcF77wPna+jK9N/StZbtvDbwubYV4PbkYOSMl6tGUeFFrpecd58snNleLtJWe80LPYWyQCClyQAfWnbVJcGDfTs8WTCLqO0Vfcs/BBu2byKyuJtYcpNcjeopCLk0kst7EtpsaOiZfHkkuRa/E2VC2jBfBjjl42zq0dF4is71Xqrfm+H32bzPLEQjlHMx9H2Xm1mWub7kZ4B9FRowowUIKyXviYZScndgAHqVAAAAAAAAAAAAAAAAAAAAAAAAB8nSi9sYvsR9QQ1dWYTtsMf0KnzEPQ6a+Iu3WZAPP4FL9i4L7FteXWz5wpKOxJdSPoAeqyVioAAAAAAAAAAAAAAAAAAAAAAAAAAABDKMAvkrvz5sqwD6+cHnD4sgA+3nB5w+AAMjzg84fAsgD7qROTHRdAH2B80XQBIAAAAAAAAAAAP//Z" vertex="1" parent="DLnloHeyzuVVM-aKo27i-54">
          <mxGeometry x="25.25" y="82" width="53.72" height="59" as="geometry" />
        </mxCell>
        <mxCell id="DLnloHeyzuVVM-aKo27i-55" style="edgeStyle=orthogonalEdgeStyle;rounded=0;orthogonalLoop=1;jettySize=auto;html=1;entryX=-0.02;entryY=0.52;entryDx=0;entryDy=0;entryPerimeter=0;startArrow=classic;startFill=1;" edge="1" parent="1" source="DLnloHeyzuVVM-aKo27i-3" target="bRs4JxvC8YH7bAJmXHYw-9">
          <mxGeometry relative="1" as="geometry">
            <Array as="points">
              <mxPoint x="200" y="240" />
              <mxPoint x="200" y="316" />
            </Array>
          </mxGeometry>
        </mxCell>
        <mxCell id="DLnloHeyzuVVM-aKo27i-56" style="edgeStyle=orthogonalEdgeStyle;rounded=0;orthogonalLoop=1;jettySize=auto;html=1;exitX=1;exitY=0.5;exitDx=0;exitDy=0;entryX=0;entryY=0.48;entryDx=0;entryDy=0;entryPerimeter=0;startArrow=classic;startFill=1;" edge="1" parent="1" source="DLnloHeyzuVVM-aKo27i-53" target="bRs4JxvC8YH7bAJmXHYw-9">
          <mxGeometry relative="1" as="geometry">
            <Array as="points">
              <mxPoint x="200" y="557" />
              <mxPoint x="200" y="316" />
              <mxPoint x="300" y="316" />
            </Array>
          </mxGeometry>
        </mxCell>
      </root>
    </mxGraphModel>
  </diagram>
</mxfile>
